<?xml version="1.0" encoding="UTF-8"?>
<svg viewBox="0 0 383.09 321.37" xmlns="http://www.w3.org/2000/svg">
 <g fill-rule="evenodd">
  <path d="m48.572 46.538c0.856-4.464 1.743-8.133 2.782-11.129 1.009-3.119 2.599-5.749 3.241-6.941 0.521-1.162 0.521-1.162 0 0 3.486-1.192 7.002-1.926 10.671-2.323 3.669-0.398 7.247-0.398 11.099 0l4.617 15.747c-10.794 1.528-21.586 3.087-32.41 4.646z" fill="#c16562"/>
  <path d="m17.567 298.12c30.974 1.621 62.987 2.66 97.691 3.241 34.765 0.51999 77.266-0.15302 108.76 0 31.219 0 54.547 1.376 77.786 0.45898 23.114-0.91699 42.897-2.966 60.173-6.024 3.119-6.299 5.473-15.776 6.941-29.139 1.437-13.483 1.466-33.297 1.864-50.48 0.366-17.215 1.069-38.343 0.45898-51.827-0.73398-13.576-2.232-22.871-4.618-28.711-32.379-0.85599-57.023-1.315-75.461-1.376-18.346-0.091995-29.413 0.214-33.786 0.91699-9.907-16.603-20.059-32.533-31.036-48.616-10.977-16.175-22.196-31.524-34.245-47.209-4.004 4.464-9.294 11.864-16.204 22.565-6.941 10.763-17.367 27.793-25.011 41.186-7.736 13.179-14.555 25.531-20.823 37.517-22.229-0.091995-42.439 0.061005-61.58 0.45799-19.141 0.367-36.293 0.979-52.285 1.834-2.232 15.869-3.547 32.686-4.189 51.398-0.672 18.683-0.428 42.164 0.489 59.715 0.948 17.4 2.6 31.862 5.076 44.092z" fill="#007f00"/>
  <g fill="#7f7f00">
   <path d="m216.62 41.555c5.809 10.61 12.169 22.412 19.446 36.11 7.246 13.729 14.951 28.528 23.604 45.345 13.301-1.804 29.844-2.568 50.451-2.293 20.67 0.245 44.275 1.438 72.221 3.7-0.978-11.681-3.058-24.063-6.481-37.976-3.485-13.912-7.951-28.71-13.882-44.885-33.146-1.896-61.184-2.783-85.644-2.783-24.461-9.99e-4 -43.97 0.886-59.715 2.782z"/>
   <path d="m41.447 42.839c-4.219 5.198-9.631 14.799-16.48 29.261-6.94 14.524-14.952 33.114-24.522 56.933 9.57-1.59 21.984-2.629 37.945-3.241 15.9-0.642 42.44-0.52 56.963-0.458 14.371 0 24.002 0.153 29.139 0.458 14.616-25.776 25.653-45.13 33.818-59.256 8.011-14.065 12.75-22.045 14.34-24.522-17.795-2.048-37.272-2.935-59.257-2.782-22.106 0.121-45.65 1.283-71.946 3.607z"/>
  </g>
  <path d="m2.28 129.03c2.354 3.149 4.402 6.084 6.023 8.806s2.813 5.106 3.7 7.399c12.506-1.406 25.745-2.446 40.299-3.241 14.493-0.85599 32.594-1.315 46.292-1.376 13.729-0.091995 25.133 0.214 35.162 0.91699 6.391-14.89 12.414-28.497 18.529-41.186 5.993-12.781 11.343-24.4 17.582-34.735 6.237-10.396 12.566-19.11 19.446-26.846 5.198 5.137 10.334 11.191 15.747 18.529 5.35 7.247 10.242 16.083 16.205 24.981 5.84 8.837 13.025 18.529 18.956 27.763 5.902 9.173 11.192 17.979 16.205 26.876 6.759-1.529 19.142-2.385 37.977-2.324 18.896-0.061996 43.112 0.79501 74.055 2.324l11.589-14.371c-30.546-2.049-55.312-3.241-75.462-3.241-20.118-0.153-34.703 0.887-44.457 2.782-13.148-25.531-24.951-47.209-36.11-66.197-11.192-18.957-20.944-34.306-30.088-46.75-5.962 8.684-12.291 18.743-19.445 30.545-7.125 11.771-14.524 25.47-23.146 39.81-8.714 14.279-18.163 29.169-28.68 45.375-36.111-0.703-63.446-0.703-83.779 0-20.151 0.674-32.228 2.019-36.6 4.16z" fill="#fff"/>
  <g stroke="#000" stroke-miterlimit="10" stroke-width=".036">
   <path d="m0.017 130.22c6.268-20.18 12.353-37.425 18.621-52.896 6.238-15.41 12.322-28.222 18.59-38.923 23.574-0.612 45.925-0.612 68.582 0 22.565 0.55 44.029 1.712 65.677 3.486-32.839-0.826-59.501-0.979-81.394-0.458-21.77 0.489-37.822 1.651-48.646 3.485-9.968 17.611-18.193 33.144-25.133 47.545-6.971 14.309-12.292 26.662-16.297 37.761z"/>
   <path d="m50.009 34.339l1.162-8.745c6.482-1.376 12.108-1.957 16.878-1.743s8.561 1.101 11.619 2.905l-0.582 8.744-4.647-7.583c-4.892-0.428-8.684-0.581-11.619-0.581-2.966 0-4.831 0.153-5.84 0.581-2.324 2.141-4.648 4.281-6.971 6.422z"/>
   <path d="m11.544 145.24c31.31-4.983 56.657-7.675 77.327-8.316 20.608-0.673 35.407 0.948 45.345 4.617-9.081-0.42801-23.544-0.367-44.091 0.306-20.701 0.61099-46.384 1.742-78.581 3.393z"/>
   <path d="m136.63 131.39c8.317-19.446 16.603-36.997 25.562-53.478 8.867-16.48 17.825-31.157 27.335-44.732 10.548 13.056 21.006 27.732 31.952 44.732 10.945 16.939 21.801 35.499 33.145 56.383-17.703-26.204-31.616-46.537-42.44-62.192s-18.07-25.684-22.075-30.79c-7.063 11.405-14.86 24.338-23.85 39.504-9.081 15.136-18.682 31.677-29.629 50.573z"/>
   <path d="m145.34 89.223c10.182-18.407 19.202-34.643 27.305-49.656 8.103-15.043 14.921-27.946 20.945-39.535 3.394 4.036 8.928 12.903 16.847 27.304 7.92 14.371 17.856 33.451 30.27 58.187-16.205-28.038-28.067-47.821-36.078-60.51-8.013-12.567-11.803-17.368-11.621-14.524-4.096 7.461-10.059 17.581-18.008 30.821-8.073 13.239-17.766 28.895-29.66 47.913z"/>
   <path d="m258.29 135.52c23.055-2.385 43.295-3.425 61.549-3.241 18.192 0.183 33.573 1.589 46.966 4.342-10.733 0.58101-24.797 0.733-43.021 0.58101-18.316-0.21501-39.748-0.735-65.494-1.682z"/>
  </g>
  <g fill="#fff">
   <path d="m32.855 271.27c1.406-9.571 2.293-19.325 2.782-29.629 0.336-10.427-0.336-24.492 0-31.952 0.367-7.491 1.009-9.846 2.293-12.475 1.224-2.66 2.416-2.446 5.106-3.242 2.599-0.82501 6.146-1.528 10.641-1.864-0.244 12.444-0.703 24.705-1.376 37.486-0.703 12.688-1.59 25.378-2.783 38.434-5.533 1.071-11.098 2.141-16.663 3.242z"/>
   <path d="m62.025 268.95c-0.611-16.389-1.009-30.546-0.948-43.052-0.061001-12.566 0.336-22.778 0.948-31.463 3.272-2.078 6.543-3.516 9.693-4.647 3.119-1.192 5.228-1.804 9.264-1.834 4.067 0 8.898 0.61099 14.83 1.834 1.039 11.711 1.651 23.941 1.834 37.517 0.12299 13.515-0.18301 27.672-0.91701 43.052-8.194 0.21402-15.013 0.21402-20.822 0-5.84-0.21399-10.427-0.76498-13.882-1.407z"/>
   <path d="m115.26 190.25c4.892-1.224 8.897-0.642 12.016 1.865 3.119 2.415 5.442 4.495 6.482 12.964 0.856 8.531-0.397 26.847-0.91699 37.486-0.52 10.518-1.376 18.621-2.324 25.012l-17.123-0.918c0-19.231 0.153-34.856 0.459-47.698 0.306-12.903 0.734-22.198 1.407-28.711z"/>
  </g>
  <g stroke="#000" stroke-miterlimit="10" stroke-width=".036">
   <path d="m132.38 263.87c1.223-18.07 1.682-32.35 1.376-43.54-0.36699-11.222-0.42799-18.101-3.241-23.115-2.905-5.046-7.492-7.369-13.882-6.972 6.543-0.91701 11.16-0.33701 14.34 1.865 3.088 2.171 3.149 3.944 4.189 11.099 1.04 7.186 2.202 21.22 1.834 31.493-0.487 10.151-1.986 19.752-4.616 29.17z"/>
   <path d="m128.68 270.36l-16.664-1.406 2.293-68.491c0.214 33.083 0.367 54.518 0.458 65.708 0.061005 10.947 0.061005 10.947 0 0 4.618 1.376 9.265 2.783 13.913 4.189z"/>
   <polygon points="117.55 225.9 126.82 226.81 127.27 255.98 116.18 255.98"/>
   <path d="m118.01 218.96l0.489-23.146c3.73 0 6.115 1.193 7.399 3.241 1.223 2.049-0.153 5.412 0 9.265 0.030998 3.761 0.184 8.194 0.459 13.423-2.782-0.918-5.565-1.836-8.347-2.783z"/>
   <path d="m33.314 268.49c0.917-8.959 1.528-18.835 1.834-30.087 0.245-11.405-1.131-29.017 0-37.028 1.101-7.918 3.303-8.286 6.482-10.181 3.088-1.896 7.063-2.478 12.047-1.407-5.748 0.12199-9.876 1.865-12.505 5.106-2.599 3.211-1.988 2.018-3.242 14.34-1.283 12.445-2.904 31.769-4.616 59.257z"/>
   <polygon points="37.931 272.19 51.813 270.81 52.761 196.73 49.519 267.57"/>
   <path d="m47.196 263.41l1.376-31.492h-7.399c-0.275 17.214-0.428 28.466-0.458 34.244-0.123 5.719-0.123 5.719 0 0 2.139-0.91699 4.309-1.835 6.481-2.752z"/>
   <path d="m47.654 226.81l0.917-29.139c-1.957 0.521-3.455 1.712-4.617 3.699-1.253 1.865-2.109 3.578-2.324 7.858-0.306 4.28 0.122 10.061 0.948 17.581 1.682 9.92e-4 3.364 9.92e-4 5.076 9.92e-4z"/>
   <path d="m65.725 188.41c3.822-2.018 7.98-3.21 12.475-3.699 4.556-0.55101 10.334-0.09201 14.371 0.91699 3.883 1.04 6.696 2.66 8.775 5.106l-1.376 77.755-15.288 0.459 12.964-3.7c0.367-18.407 0.52-33.45 0.459-45.834-0.092003-12.383-0.397-21.403-0.917-27.763-5.015-2.263-10.029-3.607-15.288-4.158-5.26-0.55-10.61-0.244-16.175 0.91699z"/>
   <path d="m68.966 193.49c3.516-2.079 7.369-2.875 11.558-2.752 4.188 0.15199 8.622 1.346 13.422 3.699l-0.458 27.764-25.011 0.459c0.152-9.723 0.305-19.447 0.48901-29.17z"/>
   <path d="m68.966 229.14l23.604-0.917-0.458 29.169c-6.299 0.948-11.313 1.56-15.288 1.835-3.944 0.18399-6.727 0.029999-8.347-0.45902 0.152-9.876 0.305-19.752 0.48901-29.628z"/>
   <path d="m59.701 210.18l-0.458 46.261c1.437-9.661 2.201-18.101 2.293-25.896 0.061001-7.829-0.551-14.464-1.835-20.365z"/>
  </g>
  <path d="m175.89 142.12c0.21399-9.172 0.21399-17.428 0-25.011-0.24501-7.674-2.6-14.616-1.406-20.363 1.161-5.84 4.892-10.977 8.347-13.882 3.333-2.874 7.155-3.914 11.588-3.241 4.495 2.66 7.644 6.36 9.692 11.099 1.958 4.679 1.591 8.623 2.324 17.153 0.703 8.623 1.284 19.569 1.864 33.787-10.792 0.15201-21.586 0.30501-32.409 0.45801z" fill="#fff"/>
  <g stroke="#000" stroke-miterlimit="10" stroke-width=".036">
   <path d="m175 144.78c-0.673-9.448-1.101-18.131-1.162-26.754-0.091995-8.623-2.69-17.429 0.58101-24.4 3.302-7.032 9.265-12.812 18.589-17.458-7.643 5.595-12.627 11.833-15.287 19.202-2.66 7.338 0 16.021-0.397 24.399-0.429 8.286-1.285 16.511-2.324 25.011z"/>
   <path d="m204.63 87.786c1.834 3.271 2.995 8.928 3.485 17.459 0.42801 8.531 0.27501 19.293-0.58099 33.114l-26.144 5.259 29.048 0.581c2.11-17.521 2.691-30.576 1.742-40.116-1.008-9.479-3.485-14.83-7.55-16.297z"/>
   <polygon points="194.76 110.47 195.34 134.87 202.31 133.71 201.73 111.64"/>
   <polygon points="183.72 109.89 183.14 135.45 190.11 134.87 190.11 111.05"/>
   <path d="m182.56 104.08c-0.703-1.56-0.703-3.883 0-6.971 0.704-3.119 2.416-9.479 4.067-11.649 1.528-2.263 3.271-2.844 5.228-1.743l-1.161 20.363h-8.134z"/>
   <path d="m195.92 86.043c3.64 1.865 5.811 4.311 6.972 7.583 1.04 3.21 0.88798 7.002-0.58 11.619l-6.973-1.162c0.185-5.993 0.367-12.017 0.58101-18.04z"/>
  </g>
  <path d="m284.22 268.03l-2.781-75.461c4.402-2.416 8.683-3.914 12.964-4.617 4.28-0.703 8.562-0.123 12.475 0.45799 3.792 0.55101 7.154 1.438 10.214 2.783l0.457 74.972c-11.1 0.61102-22.199 1.224-33.329 1.865z" fill="#fff"/>
  <g stroke="#000" stroke-miterlimit="10" stroke-width=".036">
   <path d="m296.7 191.19c-1.803-0.582-3.453-0.582-5.074 0-1.62 0.55-3.211 1.59-4.647 3.24l1.406 27.305 8.806-0.458c-0.15399-10.03-0.306-20.058-0.491-30.087z"/>
   <path d="m302.26 191.19c2.201-0.73399 3.975-0.88699 5.565-0.459 1.527 0.336 2.72 1.253 3.699 2.752l-1.407 30.087-7.857-0.917v-31.463z"/>
   <polygon points="287.92 226.81 289.3 258.77 297.64 258.77 296.24 228.22"/>
   <path d="m300.89 228.22c0.21402 7.582 0.367 13.515 0.45801 18.499 0.062012 4.86 0.062012 8.377 0 10.67h8.317l-1.377-29.169h-7.398z"/>
   <path d="m278.2 188.41c2.446-2.171 5.687-3.761 9.723-4.647 4.035-0.979 9.173-1.834 14.341-0.91701 5.105 0.88699 10.426 2.813 16.205 6.023-7.339-3.058-13.852-4.403-19.904-4.158-6.056 0.21399-11.375 2.019-16.206 5.534-0.45898 23.757-0.76498 39.229-0.91699 47.24-0.15201 7.857-0.15201 7.857 0 0-1.071-16.358-2.14-32.716-3.242-49.075z"/>
   <path d="m316.6 198.59c0.121 21.25 0.121 37.485 0 49.532-0.185 11.955-0.48999 19.05-0.918 21.74l-34.245-2.293 38.402 5.075c0.185-25.195 0.030975-43.51-0.45801-56.015-0.58002-12.413-1.468-18.315-2.781-18.039z"/>
  </g>
  <path d="m165.83 281.73c-1.56-21.098-2.171-39.718-1.835-56.933 0.306-17.245 1.498-32.013 3.7-45.375 8.5-4.678 15.869-7.521 22.229-8.775 6.329-1.253 9.6-0.245 15.716 1.376 6.085 1.498 12.721 4.158 20.395 7.858 1.04 15.013 1.65 30.638 1.835 47.698 0.12199 17.062-0.185 34.644-0.918 53.691-8.163 1.773-17.031 2.66-27.305 2.783-10.335 0.032013-21.373-0.70099-33.817-2.323z" fill="#fff"/>
  <g stroke="#000" stroke-miterlimit="10" stroke-width=".036">
   <path d="m162.59 283.14c-0.153-14.556-0.153-27.795 0-40.3 0.12201-12.536 0.397-23.636 0.94701-34.245 0.521-10.671 1.285-20.242 2.294-29.17 5.015-4.495 10.579-7.43 17.153-9.265 6.543-1.864 13.636-2.874 21.739-1.376 8.042 1.438 16.756 4.832 26.388 10.182-7.767-2.996-15.288-4.892-22.688-6.023-7.491-1.193-15.165-1.743-21.739-0.45801-6.573 1.284-12.444 4.066-17.611 8.347-1.957 12.629-3.608 27.273-4.617 44.428-1.041 17.152-1.774 36.17-1.866 57.88z"/>
   <path d="m173.26 281.27c9.203-0.121 18.07-0.121 26.847 0 8.775 0.031006 17.091 0.18399 25.438 0.45902 2.019-22.076 3.057-40.116 3.241-55.067 0.123-14.952-0.642-25.989-2.294-33.817 2.294 9.203 3.792 18.805 4.618 29.629 0.67201 10.731 0.39601 23.849 0 34.275-0.42799 10.365-1.163 19.232-2.324 27.305-13.148 0.15201-23.94 0-33.328-0.45898-9.356-0.521-16.603-1.255-22.198-2.325z"/>
   <path d="m197.54 203.03c-3.148 0.093002-8.927 13.912-9.569 20.945-0.643 6.971 3.302 16.969 5.718 20.455 2.354 3.271 6.114 2.966 8.316-0.459 2.08-3.546 5.229-13.361 4.495-20.241-0.795-6.97-5.9-20.638-8.96-20.7z"/>
   <path d="m175.55 196.09l-0.917-12.506c1.712-1.957 4.098-3.455 7.399-4.617 3.271-1.192 7.246-1.925 12.048-2.324v18.53c-6.178 0.306-12.354 0.61099-18.53 0.91699z"/>
   <path d="m197.78 194.25v-16.664c6.146-0.24501 11.038 0.21399 14.799 1.375 3.699 1.193 6.176 2.967 7.43 5.564v10.642c-7.401-0.306-14.799-0.61-22.229-0.91699z"/>
  </g>
  <path d="m14.785 190.25c8.837-4.098 17.52-9.173 26.388-15.716 8.836-6.574 17.52-14.126 26.387-23.146l32.869 0.917c7.43 4.617 15.38 9.907 24.553 16.206 9.112 6.298 18.743 13.239 29.598 21.28-13.301-3.088-26.021-5.596-38.863-7.398-12.841-1.988-25.072-3.578-37.517-3.701-12.597-0.091003-26.356 1.224-37.027 3.242-10.702 1.894-19.264 4.709-26.388 8.316z" fill="#7f7f00"/>
  <g stroke="#000" stroke-miterlimit="10" stroke-width=".036">
   <path d="m153.6 187.22c-9.418-5.992-18.285-11.894-26.724-18.04-8.531-6.177-16.328-12.261-23.85-18.59l-38.342-2.324c-5.473 6.39-12.414 12.934-20.944 19.752-8.623 6.788-18.499 13.729-30.209 20.944 9.723-3.394 18.896-8.011 28.099-13.973 9.111-5.994 17.795-13.208 26.387-21.771l32.104 2.599c9.204 6.146 18.315 11.833 27.917 17.429 9.479 5.596 25.409 13.545 29.047 15.716 3.578 2.019 1.101 0.856-7.552-3.485l4.067 1.743z"/>
   <path d="m51.813 180.06c13.209-3.21 26.479-4.25 40.758-3.241 14.279 1.04 28.62 4.005 43.969 9.265-18.774-3.088-34.857-4.984-49.075-6.023-14.249-1.04-25.899-1.04-35.652-0.001007z"/>
  </g>
  <path d="m15.244 293.5c19.08 0.82498 36.905 1.59 54.639 2.292 17.673 0.64398 36.417 1.927 50.451 1.865 13.913-0.091003 24.522-0.82498 32.411-2.323l7.858-6.482c11.435-0.94699 22.473-1.56 33.816-1.835 11.283-0.336 22.199-0.336 33.328 0l2.294 9.234c16.877 0.703 33.267 0.979 49.991 0.948 16.757-0.12198 34.797-0.67297 49.534-1.407 14.646-0.82501 26.875-1.864 37.517-3.24l0.917 22.228c-14.432 1.224-32.167 2.11-54.15 2.783-22.075 0.61099-48.647 0.76401-76.868 0.91699-28.374 0.061005-60.021-0.51999-91.637-0.45898-31.768 0-74.912 0.703-96.773 0.45898-21.709-0.33701-32.502-1.102-32.839-2.293-2.11-4.587-3.149-8.715-3.241-12.507-0.122-3.881 0.795-7.123 2.752-10.18z" fill="#7f7f00"/>
  <g stroke="#000" stroke-miterlimit="10" stroke-width=".036">
   <path d="m159.68 288.4c15.563-1.437 28.834-2.323 40.27-2.781 11.405-0.48901 20.516-0.48901 27.793 0-14.371 0.48898-26.602 1.345-37.517 2.323-10.854 0.94699-19.875 2.263-27.305 3.7v4.616c4.281-0.94699 11.068-1.56 20.364-1.834 9.294-0.33701 20.914-0.33701 35.192 0-8.255 0.45898-16.786 1.07-25.928 1.834-9.173 0.76502-18.621 1.651-28.712 2.782l-0.458 6.023c9.02-1.65 16.694-2.69 23.146-3.24 6.452-0.58099 11.467-0.58099 15.289 0-6.483 1.253-12.689 2.415-18.988 3.24-6.329 0.79599-12.383 1.499-18.529 1.866v8.316c5.198-0.397 10.519-0.397 16.205 0 5.626 0.397 11.497 1.131 17.613 2.324-6.422 0.672-12.935 1.131-19.906 1.375-7.032 0.215-14.126 0.215-21.77 0 2.232-2.63 3.578-6.482 4.159-11.558 0.489-5.104 0.183-11.434-0.918-18.986z"/>
   <path d="m226.34 294.42v23.604l-21.739-0.458c2.11-0.582 4.617-1.04 7.858-1.376 3.119-0.42899 6.819-0.70401 11.1-0.948v-10.641l-11.558-1.376 11.1-0.489c1.07-2.752 2.139-5.534 3.239-8.316z"/>
   <path d="m11.085 291.64c15.074 0.85501 31.311 1.59 49.534 2.323 18.193 0.643 42.348 1.651 58.798 1.834 16.327 0.12299 28.894-0.18301 38.403-0.91602-2.232 2.171-10.396 3.363-24.98 3.699-14.768 0.27499-42.165-1.438-62.039-1.835-19.875-0.52002-38.189-0.79501-56.016-0.948-0.336 4.251-0.336 8.073 0 11.589 0.336 3.517 0.917 6.482 1.866 9.265 26.142 1.132 49.9 1.743 72.679 1.835 22.749 0.061005 43.112-0.39801 62.497-1.376l-0.489 2.782c-16.145 1.223-35.224 1.682-58.309 1.376-23.207-0.367-49.044-1.407-79.162-3.241-1.743-7.094-2.783-12.72-3.241-17.122-0.458-4.496-0.305-7.431 0.459-9.265z"/>
   <path d="m235.15 293.5c0.45799 1.834 11.373 2.445 33.328 1.834 22.136-0.673 54.027-2.446 97.658-5.565l2.784 28.253-6.023-25.011c-23.055 3.302-44.733 5.044-66.199 5.105-21.464 0.061981-41.705-1.436-61.548-4.616z"/>
   <path d="m236.06 314.78c10.578 2.019 25.775 3.058 46.75 3.241 21.006 0.12198 46.385-0.61102 77.785-2.324-7.919 2.354-19.567 3.944-35.65 4.647-16.236 0.643-45.649 0.36798-60.175-0.45801-14.492-1.009-21.098-3.699-25.928-4.647-4.83-0.85599-5.718-1.01-2.782-0.45898z" fill="#616161"/>
   <path d="m16.191 293.96c-1.253-17.948-2.14-32.869-2.782-45.834-0.734-12.964-1.04-14.37-0.917-31.004 0.123-16.816 0.734-39.229 1.834-68.521-3.914 18.804-5.993 38.129-6.482 58.798-0.489 20.7 2.232 49.655 3.7 64.331 1.345 14.495 2.935 21.741 4.647 22.23z"/>
   <path d="m364.76 140.71c1.987 6.269 3.18 17.459 3.699 34.276 0.366 16.909 0.061981 46.842-0.91702 65.738-0.918 18.744-2.507 33.695-4.646 45.804 3.852-17.856 6.328-33.694 7.888-48.585 1.437-14.86 1.864-23.574 0.91702-39.811-1.01-16.357-3.363-35.223-6.941-57.422z"/>
   <path d="m124.49 125.33c-19.477-2.752-36.752-4.25-52.774-4.617-16.144-0.458-30.607 0.856-42.562 2.293-11.955 1.345-21.098 3.394-28.252 6.023l10.182 13.881-5.077-12.933c21.557-3.21 39.841-5.137 56.016-6.023 16.144-0.826 29.17 0.581 39.779 0.917 10.488 0.214 17.857 0.367 22.688 0.459z"/>
   <path d="m217.08 40.637c26.297-3.21 51.246-5.076 76.502-5.717 25.165-0.673 49.137-0.091999 73.23 1.742 5.473 20.823 9.388 38.557 12.199 54.028 2.722 15.41 4.036 27.732 4.067 37.792-4.402-22.076-8.623-39.78-12.781-54.059-4.188-14.279-8.255-24.308-12.199-30.79-2.905-1.896-15.717-3.088-39.383-3.578-23.849-0.549-57.055-0.274-101.64 0.582z"/>
   <path d="m258.75 122.43c6.94-2.416 16.358-3.914 28.712-4.617 12.292-0.73299 29.261-0.458 44.885 0.459 15.625 0.826 31.402 2.446 48.157 4.739l-10.181 11.129 4.616-8.806c-11.497-1.59-23.146-2.629-35.651-3.363-12.598-0.734-25.318-1.04-38.862-0.917-13.545 0.061996-27.243 0.52-41.676 1.376z"/>
  </g>
 </g>
</svg>
